<svg xmlns="http://www.w3.org/2000/svg" viewBox="0 0 183.18 36.69"><defs><style>.cls-1{fill:#b92b27;}.cls-2{fill:#231f20;}.cls-3{fill:#1e1e1e;}</style></defs><title>Asset 2</title><g id="Layer_2" data-name="Layer 2"><g id="Layer_1-2" data-name="Layer 1"><g id="Page-1"><g id="Imported-Layers"><path id="Fill-1" class="cls-1" d="M16.08,27.09C15,25,13.73,22.8,11.25,22.8a3.31,3.31,0,0,0-1.38.28L9,21.4a7.38,7.38,0,0,1,4.82-1.58,7,7,0,0,1,6.37,3.64,17,17,0,0,0,1.18-7c0-7.28-2.28-11-7.59-11s-7.5,3.74-7.5,11,2.26,10.94,7.5,10.94a8.09,8.09,0,0,0,2.28-.29Zm1.3,2.54a13.92,13.92,0,0,1-3.58.48A13.78,13.78,0,0,1,0,16.45a13.83,13.83,0,0,1,27.66,0,13.3,13.3,0,0,1-5.23,10.68c1,1.5,2,2.5,3.47,2.5a2.27,2.27,0,0,0,2.3-2.16h2C30.36,28.72,29.72,34,24,34c-3.45,0-5.28-2-6.64-4.35Z"/><path id="Fill-2" class="cls-1" d="M32.14,22.69V13.33c0-1.07-.39-1.54-1.62-1.54h-1.3V9.31h8.51V22.57c0,2.24,1.21,3.22,3.05,3.22a4.22,4.22,0,0,0,3.84-2.2V13.33c0-1.07-.39-1.54-1.62-1.54H41.63V9.31h8.59V23.2c0,1.38.51,2,2.09,2h.28v2.57L44.91,29V26.36h-.16a8.06,8.06,0,0,1-6.57,3c-3.36,0-6-1.7-6-6.71"/><path id="Fill-3" class="cls-1" d="M63.77,26.91c3,0,4.18-2.63,4.24-7.93s-1.21-7.7-4.24-7.7c-2.64,0-4.3,2.51-4.3,7.7s1.63,7.93,4.3,7.93Zm0,2.49A10.28,10.28,0,0,1,53.36,19,10.08,10.08,0,0,1,63.77,8.79c5.83,0,10.5,4.14,10.5,10.18A10.15,10.15,0,0,1,63.77,29.4Z"/><path id="Fill-4" class="cls-1" d="M74.44,29V26.51h.83c2.05,0,2.25-.59,2.25-2.37V13.33c0-1.07-.55-1.54-1.82-1.54H74.6V9.31h7.8l.39,4.07H83a5.82,5.82,0,0,1,5.38-4.46A2.93,2.93,0,0,1,91.55,12c0,1.45-.7,3-2.64,3-1.75,0-2.09-1.18-3.54-1.18-1.29,0-2.29,1.22-2.29,3v7.3c0,1.78.43,2.37,2.45,2.37h1.14V29H74.44"/><path id="Fill-5" class="cls-1" d="M100.42,26.11c2.49,0,3.51-2.36,3.51-4.72V18.23c-1.82,1.88-6,1.95-6,5.3a2.35,2.35,0,0,0,2.53,2.58Zm3.63,0A6.48,6.48,0,0,1,98,29.4c-3.42,0-5.63-1.82-5.63-5,0-6.43,9-4.72,11.59-9v-.46c0-3.28-1.29-3.79-2.71-3.79-4,0-2.17,4.29-5.84,4.29a2.16,2.16,0,0,1-2.45-2.26c0-2.42,2.9-4.38,8.33-4.38,5.14,0,8.3,1.42,8.3,6.54V23.5c0,1.26.46,1.95,1.57,1.95a2,2,0,0,0,1.17-.34l.66,1.6a5.42,5.42,0,0,1-4.7,2.29c-2.37,0-3.85-1.11-4.05-2.91Z"/></g></g></g><g id="Layer_2-2" data-name="Layer 2"><g id="Arrow_30" data-name="Arrow 30"><polygon class="cls-2" points="119.56 25.78 116.9 25.77 121.44 36.69 125.97 25.78 123.32 25.78 123.32 0 119.56 0 119.56 25.78"/></g><path class="cls-3" d="M135.73,26A5,5,0,0,1,132,24.64a3.29,3.29,0,0,1-.95-2.48,4.11,4.11,0,0,1,1.41-2.95A4.53,4.53,0,0,1,135.63,18a6.1,6.1,0,0,1,2.91.68A3.61,3.61,0,0,1,140.47,21a.6.6,0,0,1-.44.74.55.55,0,0,1-.46-.06.57.57,0,0,1-.28-.37,2.48,2.48,0,0,0-1.44-1.63,5,5,0,0,0-2.22-.47,3.36,3.36,0,0,0-2.32.87,3,3,0,0,0-1,2.12,2.07,2.07,0,0,0,.62,1.58,3.84,3.84,0,0,0,2.86,1,.61.61,0,0,1,.42,1.05.61.61,0,0,1-.43.18ZM133,32.12a3.64,3.64,0,0,1-1.94-2.35.61.61,0,0,1,.06-.46.6.6,0,0,1,.38-.28.62.62,0,0,1,.46.06.6.6,0,0,1,.28.37,2.51,2.51,0,0,0,1.44,1.64,5.08,5.08,0,0,0,2.22.46,3.36,3.36,0,0,0,2.32-.87,2.93,2.93,0,0,0,1-2.11,2.08,2.08,0,0,0-.62-1.59,3.84,3.84,0,0,0-2.86-1,.57.57,0,0,1-.43-.19.6.6,0,0,1,0-.87.59.59,0,0,1,.43-.17,5,5,0,0,1,3.73,1.38,3.22,3.22,0,0,1,.94,2.47,4.07,4.07,0,0,1-1.4,2.95,4.53,4.53,0,0,1-3.17,1.21A6.17,6.17,0,0,1,133,32.12Z"/><path class="cls-3" d="M150.28,32.79a7.39,7.39,0,0,1-7.39-7.39,7.39,7.39,0,1,1,12.62,5.23A7.12,7.12,0,0,1,150.28,32.79Zm0-13.56a6.18,6.18,0,0,0-6.15,6.17A6.16,6.16,0,1,0,154.63,21,5.91,5.91,0,0,0,150.28,19.23Z"/><path class="cls-3" d="M166.43,18a4.35,4.35,0,0,1,3.05,1.17,3.76,3.76,0,0,1,.23,5.39,4.22,4.22,0,0,1-2.55,1.34l2.94,6a.57.57,0,0,1,0,.46.61.61,0,0,1-.58.41.56.56,0,0,1-.55-.34L165.82,26h-3.44v6.09a.6.6,0,0,1-.19.43.59.59,0,0,1-.43.17.6.6,0,0,1-.61-.61V18.64a.59.59,0,0,1,.17-.43.61.61,0,0,1,.43-.17Zm3.09,4a2.51,2.51,0,0,0-.91-1.95,3.16,3.16,0,0,0-2.19-.81h-4.05v5.51h4.12a3.12,3.12,0,0,0,2.13-.82A2.51,2.51,0,0,0,169.52,22Z"/><path class="cls-3" d="M177.26,19.23h-4.07a.63.63,0,0,1-.44-.17.62.62,0,0,1,0-.87.6.6,0,0,1,.44-.19h9.37a.61.61,0,0,1,.43,1.05.59.59,0,0,1-.43.17h-4.07V32.17a.6.6,0,0,1-.62.62.61.61,0,0,1-.43-.17.62.62,0,0,1-.18-.44Z"/><path class="cls-3" d="M132.56,13.68a.37.37,0,0,1-.36.36.33.33,0,0,1-.25-.11.33.33,0,0,1-.11-.25V5.84a.36.36,0,0,1,.36-.36h4.73a.33.33,0,0,1,.25.11.34.34,0,0,1,.11.25.35.35,0,0,1-.11.26.34.34,0,0,1-.25.1h-4.37V9.41h3.27a.36.36,0,0,1,0,.71h-3.27Z"/><path class="cls-3" d="M142.54,14a4.27,4.27,0,0,1-4.27-4.27,4.27,4.27,0,0,1,8.54,0A4.27,4.27,0,0,1,142.54,14Zm0-7.83a3.41,3.41,0,0,0-2.51,1,3.42,3.42,0,0,0-1,2.51,3.56,3.56,0,0,0,7.12,0,3.58,3.58,0,0,0-3.56-3.56Z"/><path class="cls-3" d="M149.2,5.52a.36.36,0,0,1,.35.36v7.46h3.87a.36.36,0,0,1,.36.35.35.35,0,0,1-.11.26.34.34,0,0,1-.25.1H149.2a.36.36,0,0,1-.26-.1.36.36,0,0,1-.1-.26V5.87a.34.34,0,0,1,.1-.25A.35.35,0,0,1,149.2,5.52Z"/><path class="cls-3" d="M155.62,5.52a.36.36,0,0,1,.35.36v7.46h3.87a.36.36,0,0,1,.36.35.35.35,0,0,1-.11.26.34.34,0,0,1-.25.1h-4.22a.36.36,0,0,1-.26-.1.36.36,0,0,1-.1-.26V5.87a.34.34,0,0,1,.1-.25A.35.35,0,0,1,155.62,5.52Z"/><path class="cls-3" d="M165.39,14a4.27,4.27,0,0,1-4.27-4.27,4.27,4.27,0,0,1,8.54,0A4.27,4.27,0,0,1,165.39,14Zm0-7.83a3.41,3.41,0,0,0-2.51,1,3.42,3.42,0,0,0-1,2.51,3.56,3.56,0,0,0,7.12,0,3.58,3.58,0,0,0-3.56-3.56Z"/><path class="cls-3" d="M182.57,5.5a.34.34,0,0,1,.21.18.37.37,0,0,1,0,.27L180,13.8v0l0,0h0l0,0h0l0,0h0l0,0h-.26l0,0h0l0,0h0l0,0h0l0,0v0l-2.42-6.89-2.42,6.89v0l0,0h0l0,0h0l0,0h0l0,0h-.26l0,0h0l0,0h0l0,0h0l0,0v0L171.1,6a.33.33,0,0,1,0-.27.35.35,0,0,1,.48-.17.36.36,0,0,1,.18.2l2.41,6.89,2.42-6.89V5.67l0,0,0,0,0,0,0,0,0,0,0,0h.33l0,0,0,0,0,0,0,0,0,0,0,0,0,0v0l2.42,6.89,2.42-6.89a.34.34,0,0,1,.18-.2l.13-.07Z"/></g></g></svg>